<?xml version="1.0" encoding="utf-8"?>
<!-- Generator: Adobe Illustrator 19.0.1, SVG Export Plug-In . SVG Version: 6.00 Build 0)  -->
<svg version="1.1" id="Capa_1" xmlns="http://www.w3.org/2000/svg" xmlns:xlink="http://www.w3.org/1999/xlink" x="0px" y="0px"
	 viewBox="-395 390.9 60 60" style="enable-background:new -395 390.9 60 60;" xml:space="preserve">
<style type="text/css">
	.st0{fill:#C04646;}
</style>
<g>
	<path class="st0" d="M-339.8,406.4h-8.5l-4-10h-25.4l-4,10h-1.3v-5h-6v5h-1.2c-2.6,0-4.8,2.2-4.8,4.8v29.4c0,2.7,2.2,4.8,4.8,4.8
		h50.3c2.7,0,4.8-2.2,4.8-4.8v-29.4C-335,408.5-337.2,406.4-339.8,406.4z M-387,403.4h2v3h-2V403.4z M-337,440.6
		c0,1.6-1.3,2.8-2.8,2.8h-50.3c-1.6,0-2.8-1.3-2.8-2.8v-29.4c0-1.5,1.3-2.8,2.8-2.8h1.2h6h2.7l4-10h22.6l4,10h9.9
		c1.5,0,2.8,1.3,2.8,2.8C-337,411.2-337,440.6-337,440.6z"/>
	<path class="st0" d="M-365,405.4c-9.9,0-18,8.1-18,18c0,9.9,8.1,18,18,18s18-8.1,18-18C-347,413.5-355.1,405.4-365,405.4z
		 M-365,439.4c-8.8,0-16-7.2-16-16c0-8.8,7.2-16,16-16s16,7.2,16,16C-349,432.2-356.2,439.4-365,439.4z"/>
	<path class="st0" d="M-365,411.4c-6.6,0-12,5.4-12,12c0,6.6,5.4,12,12,12s12-5.4,12-12C-353,416.8-358.4,411.4-365,411.4z
		 M-365,433.4c-5.5,0-10-4.5-10-10c0-5.5,4.5-10,10-10s10,4.5,10,10C-355,428.9-359.5,433.4-365,433.4z"/>
	<path class="st0" d="M-343,410.4c-2.2,0-4,1.8-4,4c0,2.2,1.8,4,4,4s4-1.8,4-4C-339,412.2-340.8,410.4-343,410.4z M-343,416.4
		c-1.1,0-2-0.9-2-2c0-1.1,0.9-2,2-2s2,0.9,2,2C-341,415.5-341.9,416.4-343,416.4z"/>
</g>
</svg>
