<?xml version="1.0" encoding="utf-8"?>
<!-- Generator: Adobe Illustrator 19.0.1, SVG Export Plug-In . SVG Version: 6.00 Build 0)  -->
<svg version="1.1" id="Capa_1" xmlns="http://www.w3.org/2000/svg" xmlns:xlink="http://www.w3.org/1999/xlink" x="0px" y="0px"
	 viewBox="-395 390.9 60 60" style="enable-background:new -395 390.9 60 60;" xml:space="preserve">
<style type="text/css">
	.st0{fill:#C04646;}
</style>
<g>
	<path class="st0" d="M-363.4,428.9c1-0.1,2-0.6,2.6-1.5l9.4-12.9c0.3-0.4,0.2-0.9-0.1-1.3c-0.3-0.3-0.9-0.4-1.3-0.1l-12.9,9.4
		c-0.8,0.6-1.4,1.6-1.5,2.6c-0.1,1,0.3,2.1,1,2.8c0.7,0.7,1.6,1,2.5,1C-363.6,428.9-363.5,428.9-363.4,428.9z M-365.2,425.2
		c0-0.5,0.3-0.9,0.6-1.1l7.9-5.7l-5.7,7.9c-0.3,0.4-0.7,0.6-1.1,0.6c-0.5,0-0.9-0.1-1.2-0.5C-365.1,426.1-365.2,425.7-365.2,425.2z"
		/>
	<path class="st0" d="M-341,410.5C-341,410.4-341,410.4-341,410.5c0-0.1-0.1-0.1-0.1-0.1c-1-1.7-2.2-3.3-3.6-4.8l2.1-2.1l1.4,1.4
		l4.2-4.2l-4.2-4.2l-4.2,4.2l1.4,1.4l-2.1,2.1c-1.5-1.4-3.1-2.6-4.8-3.6c0,0,0,0,0,0c0,0,0,0-0.1,0c-3.1-1.8-6.6-3-10.3-3.4v-1.2
		h1.5c1.4,0,2.5-1.1,2.5-2.5c0-1.4-1.1-2.5-2.5-2.5h-9c-1.4,0-2.5,1.1-2.5,2.5c0,1.4,1.1,2.5,2.5,2.5h1.5v1.2
		c-1.1,0.1-2.2,0.3-3.2,0.5c-0.5,0.1-0.9,0.7-0.8,1.2c0.1,0.5,0.7,0.9,1.2,0.8c0.9-0.2,1.8-0.4,2.8-0.5l1.1-0.1c0.3,0,0.6,0,0.9-0.1
		v2c0,0.6,0.4,1,1,1s1-0.4,1-1v-2c3.8,0.2,7.3,1.2,10.5,2.8l-1,1.7c-0.3,0.5-0.1,1.1,0.4,1.4c0.2,0.1,0.3,0.1,0.5,0.1
		c0.3,0,0.7-0.2,0.9-0.5l1-1.7c3.1,2,5.8,4.6,7.8,7.8l-1.7,1c-0.5,0.3-0.6,0.9-0.4,1.4c0.2,0.3,0.5,0.5,0.9,0.5c0.2,0,0.3,0,0.5-0.1
		l1.7-1c1.7,3.2,2.7,6.8,2.8,10.6h-2c-0.6,0-1,0.4-1,1s0.4,1,1,1h2c-0.2,3.8-1.2,7.4-2.8,10.6l-1.7-1c-0.5-0.3-1.1-0.1-1.4,0.4
		c-0.3,0.5-0.1,1.1,0.4,1.4l1.7,1c-2,3.1-4.6,5.8-7.8,7.8l-1-1.7c-0.3-0.5-0.9-0.6-1.4-0.4c-0.5,0.3-0.6,0.9-0.4,1.4l1,1.7
		c-3.2,1.7-6.7,2.7-10.5,2.8v-2c0-0.6-0.4-1-1-1c-0.6,0-1,0.4-1,1v2c-1.6-0.1-3.2-0.3-4.8-0.6c-0.5-0.1-1.1,0.2-1.2,0.8
		c-0.1,0.5,0.2,1.1,0.8,1.2c2,0.5,4,0.7,6.1,0.7c0,0,0.1,0,0.1,0c0,0,0,0,0,0c0,0,0,0,0,0c4.8,0,9.3-1.3,13.2-3.6c0,0,0.1,0,0.1,0
		c0,0,0,0,0.1,0c4-2.4,7.4-5.7,9.8-9.8c0,0,0,0,0.1-0.1c0,0,0,0,0-0.1c2.3-4,3.6-8.5,3.6-13.4C-337.4,419-338.7,414.4-341,410.5z
		 M-341,399.1l1.4,1.4l-1.4,1.4l-1.4-1.4L-341,399.1z M-365.2,396.9v-3h-3.5c-0.3,0-0.5-0.2-0.5-0.5c0-0.3,0.2-0.5,0.5-0.5h9
		c0.3,0,0.5,0.2,0.5,0.5c0,0.3-0.2,0.5-0.5,0.5h-3.5v3c-0.3,0-0.7,0-1,0c0,0-0.1,0-0.1,0c0,0,0,0-0.1,0c-0.2,0-0.3,0-0.5,0
		C-365,396.9-365.1,396.9-365.2,396.9z"/>
	<path class="st0" d="M-373.2,404.9h-5c-0.6,0-1,0.4-1,1c0,0.6,0.4,1,1,1h5c0.6,0,1-0.4,1-1C-372.2,405.3-372.7,404.9-373.2,404.9z"
		/>
	<path class="st0" d="M-373.2,411.9h-10c-0.6,0-1,0.4-1,1c0,0.6,0.4,1,1,1h10c0.6,0,1-0.4,1-1C-372.2,412.3-372.7,411.9-373.2,411.9
		z"/>
	<path class="st0" d="M-373.2,418.9h-15c-0.6,0-1,0.4-1,1c0,0.6,0.4,1,1,1h15c0.6,0,1-0.4,1-1C-372.2,419.3-372.7,418.9-373.2,418.9
		z"/>
	<path class="st0" d="M-373.2,425.9h-19c-0.6,0-1,0.4-1,1c0,0.6,0.4,1,1,1h19c0.6,0,1-0.4,1-1C-372.2,426.3-372.7,425.9-373.2,425.9
		z"/>
	<path class="st0" d="M-373.2,432.9h-13c-0.6,0-1,0.4-1,1c0,0.6,0.4,1,1,1h13c0.6,0,1-0.4,1-1C-372.2,433.3-372.7,432.9-373.2,432.9
		z"/>
	<path class="st0" d="M-373.2,439.9h-7c-0.6,0-1,0.4-1,1c0,0.6,0.4,1,1,1h7c0.6,0,1-0.4,1-1C-372.2,440.3-372.7,439.9-373.2,439.9z"
		/>
</g>
</svg>
