<?xml version="1.0" encoding="utf-8"?>
<!-- Generator: Adobe Illustrator 19.0.1, SVG Export Plug-In . SVG Version: 6.00 Build 0)  -->
<svg version="1.1" id="Слой_1" xmlns="http://www.w3.org/2000/svg" xmlns:xlink="http://www.w3.org/1999/xlink" x="0px" y="0px"
	 viewBox="-169 164.9 512 512" style="enable-background:new -169 164.9 512 512;" xml:space="preserve">
<style type="text/css">
	.st0{fill:#C04646;}
</style>
<title>001 - Insurance Document</title>
<desc>Created with Sketch.</desc>
<g id="Page-1">
	<g id="_x30_01---Insurance-Document">
		<path id="Shape" class="st0" d="M-117.8,258.8h51.2c4.7,0,8.5-3.8,8.5-8.5c0-4.7-3.8-8.5-8.5-8.5h-51.2c-4.7,0-8.5,3.8-8.5,8.5
			C-126.3,254.9-122.5,258.8-117.8,258.8z"/>
		<path id="Shape_1_" class="st0" d="M-23.9,258.8h76.8c4.7,0,8.5-3.8,8.5-8.5c0-4.7-3.8-8.5-8.5-8.5h-76.8c-4.7,0-8.5,3.8-8.5,8.5
			C-32.5,254.9-28.6,258.8-23.9,258.8z"/>
		<path id="Shape_2_" class="st0" d="M-117.8,352.6h273.1c4.7,0,8.5-3.8,8.5-8.5c0-4.7-3.8-8.5-8.5-8.5h-273.1
			c-4.7,0-8.5,3.8-8.5,8.5C-126.3,348.8-122.5,352.6-117.8,352.6z"/>
		<path id="Shape_3_" class="st0" d="M-117.8,386.8H1.7c4.7,0,8.5-3.8,8.5-8.5c0-4.7-3.8-8.5-8.5-8.5h-119.5c-4.7,0-8.5,3.8-8.5,8.5
			C-126.3,382.9-122.5,386.8-117.8,386.8z"/>
		<path id="Shape_4_" class="st0" d="M-117.8,455H1.7c4.7,0,8.5-3.8,8.5-8.5S6.4,438,1.7,438h-119.5c-4.7,0-8.5,3.8-8.5,8.5
			S-122.5,455-117.8,455z"/>
		<path id="Shape_5_" class="st0" d="M-117.8,523.3H1.7c4.7,0,8.5-3.8,8.5-8.5c0-4.7-3.8-8.5-8.5-8.5h-119.5c-4.7,0-8.5,3.8-8.5,8.5
			C-126.3,519.5-122.5,523.3-117.8,523.3z"/>
		<path id="Shape_6_" class="st0" d="M-117.8,591.6H1.7c4.7,0,8.5-3.8,8.5-8.5s-3.8-8.5-8.5-8.5h-119.5c-4.7,0-8.5,3.8-8.5,8.5
			S-122.5,591.6-117.8,591.6z"/>
		<path id="Shape_7_" class="st0" d="M337.9,413.5l-97.3-42v-181c0-14.1-11.5-25.6-25.6-25.6h-324.3c-14.1,0-25.6,11.5-25.6,25.6
			v8.5h-8.5c-14.1,0-25.6,11.5-25.6,25.6v426.7c0,14.1,11.5,25.6,25.6,25.6h324.3c6.9,0,13.5-2.8,18.3-7.8l7,5
			c5.3,3.8,12.4,3.8,17.7,0l82.6-58.8c22.9-16.2,36.5-42.5,36.6-70.6V421.3C343,417.9,341,414.8,337.9,413.5z M-117.8,190.5
			c0-4.7,3.8-8.5,8.5-8.5H215c4.7,0,8.5,3.8,8.5,8.5v173.6l-5.1-2.2c-2.2-0.9-4.6-0.9-6.8,0l-5.1,2.2V310c0-0.2-0.1-0.4-0.1-0.6
			c0-0.7-0.2-1.4-0.4-2.1c-0.1-0.2-0.1-0.4-0.1-0.6c-0.1-0.2-0.1-0.2-0.2-0.3c-0.4-0.9-1-1.8-1.7-2.5L101.6,201.5
			c-0.7-0.7-1.6-1.3-2.5-1.7c-0.1-0.1-0.2-0.1-0.3-0.2c-0.1,0-0.4-0.1-0.6-0.1c-0.7-0.2-1.4-0.4-2.1-0.4c-0.2,0-0.4-0.1-0.6-0.1
			h-213.3V190.5z M104.1,228.2l73.3,73.3h-64.7c-4.7,0-8.5-3.8-8.5-8.5V228.2z M180.9,659.8h-324.3c-4.7,0-8.5-3.8-8.5-8.5V224.6
			c0-4.7,3.8-8.5,8.5-8.5H87v76.8c0,14.1,11.5,25.6,25.6,25.6h76.8v53l-27.5,11.9c1.2-1.4,1.8-3.3,1.9-5.1c0-4.7-3.8-8.5-8.5-8.5
			H35.8c-4.7,0-8.5,3.8-8.5,8.5c0,4.7,3.8,8.5,8.5,8.5H154l-39.5,17.1h-232.3c-4.7,0-8.5,3.8-8.5,8.5s3.8,8.5,8.5,8.5H87.1
			c0,0.1-0.1,0.3-0.1,0.4V438H35.8c-4.7,0-8.5,3.8-8.5,8.5s3.8,8.5,8.5,8.5H87v17.1h-204.8c-4.7,0-8.5,3.8-8.5,8.5s3.8,8.5,8.5,8.5
			H87v17.1H35.8c-4.7,0-8.5,3.8-8.5,8.5c0,4.7,3.8,8.5,8.5,8.5H87v17.1h-204.8c-4.7,0-8.5,3.8-8.5,8.5s3.8,8.5,8.5,8.5H88.1
			c0.8,5.8,2.3,11.5,4.3,17.1H35.8c-4.7,0-8.5,3.8-8.5,8.5s3.8,8.5,8.5,8.5H101c4,6.3,8.9,12,14.3,17.1h-233.1
			c-4.7,0-8.5,3.8-8.5,8.5s3.8,8.5,8.5,8.5h256l46.5,33.1C183.5,659.4,182.2,659.8,180.9,659.8z M325.9,544.7
			c-0.1,22.5-11,43.7-29.4,56.7l-81.5,58l-81.5-58c-18.4-13-29.3-34.1-29.4-56.7V426.9l15.4-6.7l0.2-0.1L215,379l110.9,47.9V544.7z"
			/>
		<path id="Shape_8_" class="st0" d="M211.6,399l-85.3,36.9c-3.1,1.4-5.1,4.4-5.1,7.8v101c0.1,17,8.4,33,22.3,42.8l66.7,47.5
			c3,2.1,6.9,2.1,9.9,0l66.7-47.5c13.9-9.8,22.2-25.8,22.3-42.8v-101c0-3.4-2-6.5-5.1-7.8L218.4,399
			C216.2,398.1,213.8,398.1,211.6,399z M291.8,449.4v95.3c-0.1,11.5-5.7,22.3-15.1,28.9L215,617.5l-61.7-43.9
			c-9.4-6.6-15-17.4-15.1-28.9v-95.4l76.8-33.2L291.8,449.4z"/>
		<path id="Shape_9_" class="st0" d="M168.9,525c-2.4-1.8-5.7-2.2-8.5-1c-2.8,1.2-4.8,3.8-5.1,6.8c-0.4,3,0.9,6,3.4,7.8l34.1,25.6
			c3.7,2.8,8.9,2.1,11.8-1.5l68.3-85.3c2.9-3.7,2.3-9.1-1.3-12c-3.7-2.9-9.1-2.3-12,1.3l-63.1,78.9L168.9,525z"/>
	</g>
</g>
</svg>
