<?xml version="1.0" encoding="utf-8"?>
<!-- Generator: Adobe Illustrator 19.0.1, SVG Export Plug-In . SVG Version: 6.00 Build 0)  -->
<svg version="1.1" id="Capa_1" xmlns="http://www.w3.org/2000/svg" xmlns:xlink="http://www.w3.org/1999/xlink" x="0px" y="0px"
	 viewBox="-248 244.1 354.8 354.8" style="enable-background:new -248 244.1 354.8 354.8;" xml:space="preserve">
<style type="text/css">
	.st0{fill:#C04646;}
</style>
<g>
	<g id="Layer_5_58_">
		<g>
			<g>
				<path class="st0" d="M17.4,353.2c-10.6-4.3-13.7-6.8-13.7-11.5c0-3.7,2.8-8.1,10.7-8.1c7,0,12.4,2.8,12.4,2.8
					c0.6,0.3,1.2,0.5,1.8,0.5c1.5,0,2.9-0.9,3.5-2.4l1.9-4.9c0.7-1.8-0.3-3.4-1.6-3.9c-4.3-1.9-12.8-3.3-12.8-3.3
					c-0.1,0-0.6-0.1-0.6-0.7l0-7.1c0-2.2-1.8-3.9-4-3.9h-3.5c-2.2,0-4,1.8-4,3.9l0,7.5c0,0.6-0.6,0.8-0.9,0.9
					c-10.7,2.5-17.3,10.3-17.3,20.2c0,12.3,10.1,17.8,21.1,22c8.8,3.4,12.3,6.9,12.3,12c0,5.6-5.1,9.5-12.3,9.5
					c-6.2,0-14.6-3.9-14.6-4c-0.5-0.3-1.1-0.4-1.7-0.4c-1.6,0-3,1-3.5,2.5l-1.8,5c-0.7,1.9,0.4,3.4,1.6,4C-4.4,396.4,5.6,398,6,398
					c0.1,0,0.7,0.2,0.7,0.8v7.5c0,2.2,1.8,3.9,4,3.9h3.6c2.2,0,4-1.8,4-3.9v-7.9c0-0.7,0.5-0.8,0.7-0.8
					c11.4-2.6,18.3-10.9,18.3-21.3C37.3,365.6,31.4,358.7,17.4,353.2z"/>
				<path class="st0" d="M13,266.6c-51.8,0-93.8,42-93.8,93.8c0,51.8,42,93.8,93.8,93.8c51.8,0,93.8-42,93.8-93.8
					C106.8,308.6,64.8,266.6,13,266.6z M13,432.5c-39.8,0-72.1-32.3-72.1-72.1s32.3-72.1,72.1-72.1c39.8,0,72.1,32.3,72.1,72.1
					S52.8,432.5,13,432.5z"/>
			</g>
			<g>
				<path class="st0" d="M87.7,499.7c-20,11-47.4,21.2-74.8,25.5c-24.3,3.8-70.1-5.4-70.1-16.3c0-4.1,40.2,10.2,64.5,3.7
					c18.6-5,16-22.4,5.9-24.7C3.1,485.6-56,464-81.2,463.2c-11.9-0.4-41.2,4.1-55.4,6.4c-4.9,0.8-7.9,0.7-8.2,5.4
					c-1.4,21.6-4.2,65.8-5.7,88.9c0,0.5,0.6,7,6.1,2.4c5.9-5.1,14.2-10.7,21.9-8.9c12.1,2.7,116.4,21.9,130.8,18.5
					c20.6-4.8,78.9-39.3,90.1-50.1C115.7,509.3,102.2,491.7,87.7,499.7z"/>
				<path class="st0" d="M-173.6,468.8l-54.7-2.7c-4.2-0.2-8.5,3-9.6,7.1l-9.9,90.3c-1,4.1,1.6,7.6,5.8,7.7l60.6,0
					c4.2,0.2,7.9-3.2,8.3-7.4l6.7-87C-166.2,472.7-169.4,469-173.6,468.8z M-205.8,559.2c-8.3,0-15.1-6.8-15.1-15.1
					c0-8.3,6.8-15.1,15.1-15.1c8.3,0,15.1,6.8,15.1,15.1C-190.6,552.5-197.4,559.2-205.8,559.2z"/>
			</g>
		</g>
	</g>
</g>
</svg>
